# xmcd
#
# Track frame offsets: 
#        150
#        36415
#        84995
#        113772
#        135040
#        162522
#        185777
#        214510
#
# Disc length: 3094 seconds
#
# Revision: 2
# Processed by: cddbd v1.5.1PL2 Copyright (c) Steve Scherf et al.
# Submitted via: ExactAudioCopy v0.95b4
#
DISCID=640c1408
DTITLE=Jacques Loussier Trio - Jacques Loussier Trio Plays Debussy
DYEAR=2000
DGENRE=Jazz
TTITLE0=Clair de lune
TTITLE1=Prélude à L'après-midi d'un faune
TTITLE2=Arabesque (from Deux Arabesques)
TTITLE3=La File aux cheveux de lin (from Préludes Book 1)
TTITLE4=L'isle joyeuse
TTITLE5=Rêverie
TTITLE6=La Cathédrale engloutie (from Préludes Book 1)
TTITLE7=Syrinx
EXTD=Jacques Loussier - piano\nBenoit Dunoyer De Segonzac - bass\nAndr
EXTD=e Arpino - drums\n\nClaude Debussy (1862 - 1918), French composer
EXTD=whose music represents the transition from late-romantic music t
EXTD=o 20th century modernist music.
EXTT0=
EXTT1=
EXTT2=
EXTT3=
EXTT4=
EXTT5=
EXTT6=
EXTT7=
PLAYORDER=
